<svg xmlns="http://www.w3.org/2000/svg" viewBox="0 0 512 512">
  <path d="M256 0c141.38 0 256 114.62 256 256S397.38 512 256 512c0-11.13-33.4-256-33.4-256L256 0z" fill="#f0f0f0"/>
  <path d="M256 512C114.62 512 0 397.38 0 256S114.62 0 256 0" fill="#00bdb4"/>
  <g fill="#d80027">
    <path d="M311 206.9l-21 28.94-34.02-11.03 21.04 28.92-21 28.94 34-11.07 21.04 28.92-.02-35.76 34-11.07-34.01-11.03z"/>
    <path d="M277.24 328.35a72.35 72.35 0 1 1 34.41-136 89.04 89.04 0 1 0 0 127.3 72 72 0 0 1-34.41 8.7z"/>
  </g>
</svg>