<svg width="15" height="13" xmlns="http://www.w3.org/2000/svg"><!--Generator: Sketch 51.3 (57544) - http://www.bohemiancoding.com/sketch--><g id="Symbols" fill="none" fill-rule="evenodd"><g id="Ajouter-Au-Panier" transform="translate(-137 -15)" fill="#FFF" fill-rule="nonzero"><g id="commerce-and-shopping" transform="translate(137 15)"><path d="M7.65 5.082h1.116v1.096a.25.25 0 0 0 .253.25.25.25 0 0 0 .253-.25V5.082h1.054c.14 0 .253-.112.253-.249a.251.251 0 0 0-.253-.249H9.272V3.55a.25.25 0 0 0-.253-.25.25.25 0 0 0-.253.25v1.035H7.651a.25.25 0 0 0-.253.249c0 .137.113.249.253.249z" id="Shape"/><path d="M.253.498h1.543c.507-.002.94.36 1.018.852l1.222 9.006v.006c.116.736.761 1.278 1.519 1.275h.212c.093.54.569.935 1.126.935.557 0 1.033-.395 1.126-.935h2.113c.098.564.611.966 1.192.933a1.133 1.133 0 0 0 1.076-1.06 1.128 1.128 0 0 0-.952-1.17 1.144 1.144 0 0 0-1.288.8H7.991a1.14 1.14 0 0 0-1.098-.815c-.51 0-.959.332-1.098.815h-.24c-.507.002-.94-.36-1.018-.853l-.369-2.714h7.895c.655 0 1.237-.408 1.452-1.016l1.435-4.072a.245.245 0 0 0-.033-.226.254.254 0 0 0-.206-.105H3.434l-.119-.873v-.006A1.522 1.522 0 0 0 1.795 0H.253A.25.25 0 0 0 0 .25c0 .137.113.249.253.249zm11.005 10.324c.352 0 .637.28.637.626a.631.631 0 0 1-.637.626.631.631 0 0 1-.636-.626c0-.345.285-.625.636-.626zm-4.365 0c.351 0 .636.28.636.626a.631.631 0 0 1-.636.626.631.631 0 0 1-.637-.626c0-.345.285-.625.637-.626zm7.462-8.17l-1.318 3.741a1.03 1.03 0 0 1-.974.682H4.1l-.6-4.423h10.854z" id="Shape"/></g></g></g></svg>