<svg width="34" height="24" xmlns="http://www.w3.org/2000/svg" xmlns:xlink="http://www.w3.org/1999/xlink"><defs><path id="a" d="M.109.14h13.77v14.042H.11z"/></defs><g fill="none" fill-rule="evenodd"><path d="M33.95 16.636H0" stroke="#1A1A1A" stroke-width=".292"/><path d="M16.917 0C7.574 0 0 6.838 0 15.273h33.833C33.833 6.838 26.26 0 16.917 0" fill-opacity=".4" fill="#775775"/><path d="M8.038 13.674c-.07.137-.172.342-.304.61-.17.348-.351.71-.54 1.076l-.544 1.06-.24.466a45.808 45.808 0 0 0 1.848-1.253c.482-.344.976-.71 1.469-1.087.488-.374.96-.753 1.403-1.127.436-.37.817-.72 1.132-1.042a6.23 6.23 0 0 0 .638-.745 4.891 4.891 0 0 0-.826.1 8.787 8.787 0 0 0-1.561.478 9.863 9.863 0 0 0-2.475 1.464zm-2.569 5.33c-.142.163-.276.34-.4.525-.167.25-.295.495-.382.73-.08.215-.115.416-.107.598.008.16.067.231.111.27.07.064.217.108.412.126.041.004.085.005.131.005.255 0 .593-.052 1.003-.156l.033-.007c1.197-.236 2.25-.538 3.128-.897.877-.359 1.61-.737 2.179-1.126.549-.375.955-.746 1.207-1.102.224-.318.336-.596.324-.805-.007-.125-.05-.228-.24-.324-.14-.071-.359-.109-.63-.109-.129 0-.272.008-.424.025-.552.06-1.26.258-2.1.587-.857.335-1.864.858-2.995 1.554a1.16 1.16 0 0 1-.663.226l-.048-.001a1.571 1.571 0 0 1-.487-.1l-.052-.02zm-.46 3.905c-.568 0-1.055-.096-1.447-.285-.426-.21-.722-.416-.91-.633a1.208 1.208 0 0 1-.319-.802c0-.243.067-.509.199-.788.105-.224.229-.484.37-.78l.007-.015.008-.015a40.118 40.118 0 0 0 .564-1.023c.133-.251.282-.524.444-.811.155-.273.3-.538.434-.79l.35-.663a14.6 14.6 0 0 1 .21-.387c.105-.195.157-.376.146-.51a4.486 4.486 0 0 0-.08-.566 2.756 2.756 0 0 1-.061-.663c.009-.288.153-.584.44-.902l.02-.023.024-.02a8.36 8.36 0 0 0 .21-.197 78.948 78.948 0 0 1 .764-.717 2.81 2.81 0 0 0 .162-.154l.015-.02.01-.009c.088-.092.23-.196.64-.408.288-.149.641-.312 1.051-.484.402-.17.856-.347 1.352-.529.499-.182 1-.346 1.49-.486.5-.143.991-.253 1.46-.328a6.03 6.03 0 0 1 .938-.083c.126 0 .248.006.361.017.466.045.823.202 1.063.468.257.286.31.677.158 1.162a4.23 4.23 0 0 1-.956 1.623c-.41.436-.848.83-1.303 1.172-.407.305-.802.584-1.176.83.854.079 1.52.214 2.018.409.817.32 1.293.757 1.417 1.3.117.514-.057 1.068-.516 1.647-.403.508-.958 1.013-1.65 1.502-.676.476-1.451.932-2.305 1.355a18.58 18.58 0 0 1-2.566 1.046 11.95 11.95 0 0 1-2.445.53 6.12 6.12 0 0 1-.592.03z" fill="#775775"/><g transform="translate(2.333 9.818)"><mask id="b" fill="#fff"><use xlink:href="#a"/></mask><path d="M5.308 10.075C6.394 9.4 7.358 8.894 8.17 8.572c.783-.31 1.43-.495 1.923-.549a3.25 3.25 0 0 1 .352-.021c.175 0 .273.02.32.033-.013.077-.062.232-.239.485-.215.31-.574.639-1.067.979-.531.366-1.221.726-2.052 1.07-.834.345-1.838.636-2.984.864l-.033.006-.031.008c-.445.114-.703.138-.842.138a.763.763 0 0 1-.11-.007c.004-.112.03-.238.081-.376.074-.203.186-.417.331-.637.047-.07.095-.138.144-.205a2.22 2.22 0 0 0 .367.035c.341 0 .67-.108.978-.32M6.74 4.748a9.16 9.16 0 0 1 2.23-1.315c.266-.11.537-.207.81-.288-.24.232-.51.476-.807.731-.431.369-.892.743-1.368 1.112a53.083 53.083 0 0 1-1.555 1.16c.15-.3.297-.596.436-.882.117-.243.198-.407.254-.518M11.694.139c-.31 0-.655.03-1.026.09-.487.08-.997.195-1.515.345a21.88 21.88 0 0 0-1.514.5c-.5.185-.958.366-1.364.539-.419.178-.782.348-1.08.504-.414.216-.623.355-.772.512l-.035.038-.008.01a4.56 4.56 0 0 1-.118.111 87.39 87.39 0 0 0-.954.906l-.045.04-.041.046c-.358.401-.538.788-.55 1.182-.008.248.015.505.07.762.033.158.057.33.071.511 0 .001.005.085-.097.282-.043.076-.11.203-.207.387l-.173.331-.174.332c-.13.248-.272.51-.423.78-.162.29-.312.566-.446.822a31.737 31.737 0 0 1-.55 1.01l-.016.03-.015.03c-.14.296-.262.557-.366.781a2.306 2.306 0 0 0-.237.969c0 .386.147.761.424 1.086.23.27.578.518 1.06.758l.004.002.004.002c.47.229 1.039.345 1.693.345.204 0 .422-.011.646-.034.795-.08 1.651-.266 2.544-.556.867-.28 1.748-.643 2.619-1.08a17.77 17.77 0 0 0 2.352-1.399c.725-.517 1.31-1.055 1.737-1.6.54-.69.74-1.365.595-2.009-.158-.702-.733-1.253-1.709-1.64a5.765 5.765 0 0 0-.941-.271l.24-.18c.472-.36.928-.773 1.353-1.23a4.689 4.689 0 0 0 1.047-1.794c.248-.798 0-1.3-.25-1.582C13.3.55 12.87.233 12.111.159a4.313 4.313 0 0 0-.417-.02M4.33 9.45h-.017a.939.939 0 0 1-.295-.06l-.261-.1a.262.262 0 0 0-.094-.017.346.346 0 0 0-.166.047 5.76 5.76 0 0 0-.608.77 3.96 3.96 0 0 0-.426.824c-.099.27-.142.524-.13.763a.8.8 0 0 0 .26.58c.162.147.408.236.738.266.059.006.12.008.186.008.305 0 .686-.058 1.144-.175 1.227-.244 2.296-.554 3.205-.93.909-.377 1.662-.771 2.258-1.183.597-.412 1.037-.82 1.32-1.228.284-.406.418-.765.4-1.075-.017-.31-.185-.546-.504-.71-.226-.115-.525-.173-.895-.173-.15 0-.312.01-.486.029-.602.066-1.346.274-2.232.625-.886.351-1.908.888-3.066 1.61a.585.585 0 0 1-.331.13m-.451-.756c.092-.02.283-.117.573-.29.29-.172.64-.396 1.051-.67a53.855 53.855 0 0 0 2.815-2.036c.492-.382.96-.764 1.407-1.145.445-.381.83-.74 1.155-1.075.324-.336.57-.633.738-.892.168-.26.218-.46.148-.603a4.5 4.5 0 0 0-.533-.031c-.347 0-.705.038-1.074.115a9.172 9.172 0 0 0-1.65.51c-.539.225-1.04.481-1.503.771-.463.29-.851.572-1.164.847-.07.132-.186.366-.348.701-.162.336-.338.692-.53 1.068l-.538 1.06c-.168.33-.287.562-.356.694 0 .02-.03.074-.087.16-.058.087-.093.14-.104.16 0 .03-.003.077-.009.138a1.92 1.92 0 0 0 0 .38c.006.062.009.108.009.138m7.815-7.61c.105 0 .204.005.298.015.313.03.541.127.686.29.145.162.165.411.06.747a3.767 3.767 0 0 1-.842 1.449 9.627 9.627 0 0 1-1.224 1.113c-.429.326-.837.615-1.225.87-.388.254-.675.493-.86.716 1.39.041 2.406.188 3.049.443.643.254 1.007.574 1.094.96.087.387-.055.816-.425 1.29-.371.472-.88.94-1.53 1.402-.648.463-1.383.9-2.206 1.312a17.59 17.59 0 0 1-2.458 1.014c-.816.265-1.58.432-2.293.504-.185.018-.36.027-.524.027-.471 0-.861-.075-1.17-.226-.347-.172-.59-.34-.73-.503a.786.786 0 0 1-.208-.518c0-.184.052-.387.156-.61l.365-.778a42.931 42.931 0 0 0 .565-1.038c.133-.254.278-.52.434-.8.156-.28.301-.547.434-.801l.348-.664c.098-.187.165-.312.2-.373.15-.285.217-.536.2-.755a4.912 4.912 0 0 0-.087-.618 2.358 2.358 0 0 1-.053-.564c.006-.183.113-.392.322-.625.035-.031.11-.102.226-.214a77.045 77.045 0 0 1 .747-.71c.115-.106.185-.175.208-.205.058-.061.223-.163.495-.305.272-.143.606-.298 1-.465.393-.168.83-.34 1.311-.519.48-.178.958-.336 1.433-.473.475-.137.932-.241 1.373-.312.308-.05.585-.075.83-.075" fill="#FFF" mask="url(#b)"/></g><path d="M18.65 24a.672.672 0 0 1-.279-.06l-.076-.034-.252-.228-.103-.094-.035-.13c-.086-.324-.084-.691.005-1.093a6.91 6.91 0 0 1 .336-1.08c.141-.35.296-.692.46-1.016.158-.312.288-.57.39-.775.053-.115.143-.3.266-.543l.41-.805c.153-.297.312-.61.476-.937.165-.33.325-.646.48-.946l.293-.57a24.1 24.1 0 0 0-1.025.21l-1.33.3c-.472.108-.92.186-1.33.235-.242.028-.47.043-.676.043-.168 0-.327-.01-.472-.029-.64-.082-.866-.43-.944-.63l-.077-.2.11-.186c.15-.253.482-.45 1.145-.682.514-.18 1.177-.37 1.97-.564a70.199 70.199 0 0 1 2.63-.583c.961-.196 1.956-.384 2.957-.559.997-.174 1.988-.336 2.945-.48.96-.145 1.825-.265 2.573-.357a34.948 34.948 0 0 1 1.847-.188c.188-.013.34-.019.464-.019.207 0 .635 0 .79.348a.957.957 0 0 1 .048.561c-.06.304-.279.523-.604.603l-.026.007-.027.004c-.557.082-1.158.172-1.806.27-.651.098-1.312.202-1.962.307-.664.108-1.313.216-1.948.324-.623.105-1.216.211-1.763.314-.25.044-.5.185-.75.42-.3.28-.598.64-.883 1.065-.296.44-.584.939-.858 1.479-.278.55-.547 1.116-.8 1.684-.255.574-.49 1.13-.701 1.652a42.053 42.053 0 0 1-.603 1.427 9.501 9.501 0 0 1-.504.999c-.088.146-.323.536-.761.536" fill="#775775"/><path d="M31.275 10.91c-.139 0-.304.006-.505.02a35.32 35.32 0 0 0-1.886.192c-.755.094-1.629.216-2.597.363-.965.147-1.964.311-2.968.488-1.01.178-2.013.369-2.982.567-.974.2-1.87.4-2.661.595-.814.2-1.497.397-2.03.585-.795.28-1.207.544-1.424.911l-.222.376.156.403c.201.52.701.868 1.372.955.17.023.355.034.548.034.23 0 .482-.016.748-.048.431-.051.9-.134 1.394-.247l1.297-.295c-.109.216-.217.431-.322.643-.165.332-.325.649-.474.942-.156.304-.293.576-.414.817-.123.246-.213.43-.274.562-.1.205-.229.46-.384.77-.17.337-.33.695-.477 1.062a7.461 7.461 0 0 0-.36 1.162c-.104.474-.104.915 0 1.311l.069.261.207.192.094.085.102.094.122.11.152.069c.16.073.339.111.517.111.5 0 .914-.267 1.23-.794.157-.263.33-.61.53-1.059.187-.422.393-.912.612-1.457.209-.523.444-1.08.698-1.655.25-.567.516-1.132.792-1.68.266-.53.546-1.016.832-1.445.266-.4.54-.733.814-.991.172-.163.333-.261.465-.285h.007l.008-.002c.545-.103 1.136-.21 1.758-.316.624-.107 1.28-.216 1.95-.326.65-.106 1.311-.21 1.963-.31l1.81-.272.054-.008.053-.013c.525-.13.894-.502.988-.992a1.404 1.404 0 0 0-.069-.81l-.004-.011-.005-.011c-.192-.434-.624-.654-1.284-.654m0 .966c.186 0 .286.017.3.05.035.082.04.184.018.303-.023.12-.097.195-.223.226-.558.083-1.163.174-1.813.273-.65.099-1.308.203-1.975.312a278.5 278.5 0 0 0-1.958.327c-.64.11-1.232.216-1.78.32-.353.062-.695.25-1.026.561-.33.312-.65.7-.957 1.162-.308.462-.605.976-.89 1.543-.285.566-.556 1.14-.812 1.722a54.35 54.35 0 0 0-.71 1.684c-.217.54-.417 1.016-.599 1.427-.182.41-.342.73-.479.959-.116.193-.215.29-.298.29a.105.105 0 0 1-.044-.01 26.294 26.294 0 0 1-.188-.171c-.068-.26-.066-.559.009-.897.074-.337.18-.678.316-1.02.137-.344.285-.674.445-.99.16-.318.29-.58.393-.788.057-.125.145-.307.265-.546l.41-.81c.155-.302.314-.619.48-.951.165-.333.325-.65.479-.952l.41-.802c.12-.234.208-.408.265-.523a1.398 1.398 0 0 0-.221-.015c-.166 0-.369.02-.608.062-.36.063-.756.143-1.19.242l-1.333.304c-.456.104-.881.18-1.275.226-.22.026-.424.04-.61.04-.144 0-.277-.008-.399-.024-.28-.037-.453-.143-.521-.32.08-.135.37-.291.872-.468.502-.176 1.143-.36 1.924-.553.781-.192 1.654-.387 2.617-.585.964-.197 1.947-.384 2.95-.561a127.09 127.09 0 0 1 2.943-.483 97.031 97.031 0 0 1 2.565-.359c.753-.094 1.36-.156 1.822-.187.173-.012.315-.018.426-.018" fill="#FFF"/></g></svg>